<?xml version="1.0" encoding="UTF-8"?>
<svg id="Layer_2" data-name="Layer 2" xmlns="http://www.w3.org/2000/svg" viewBox="0 0 52.19 52">
  <defs>
    <style>
      .cls-1 {
        fill: #e4e3d1;
        stroke-width: 0px;
      }
    </style>
  </defs>
  <g id="Social">
    <g id="Logo">
      <path id="Initiator" class="cls-1" d="m52.19,26.1C52.19,11.68,40.51,0,26.1,0S0,11.68,0,26.1c0,12.24,8.43,22.51,19.79,25.33v-17.35h-5.38v-7.97h5.38v-3.44c0-8.88,4.02-13,12.74-13,1.65,0,4.51.32,5.67.65v7.23c-.62-.06-1.69-.1-3.01-.1-4.28,0-5.93,1.62-5.93,5.83v2.82h8.52l-1.46,7.97h-7.06v17.93c12.92-1.56,22.93-12.56,22.93-25.9Z"/>
    </g>
  </g>
</svg>