<?xml version="1.0" encoding="UTF-8"?>
<svg id="Layer_2" data-name="Layer 2" xmlns="http://www.w3.org/2000/svg" viewBox="0 0 52 52">
  <defs>
    <style>
      .cls-1 {
        fill: #e4e3d1;
      }
    </style>
  </defs>
  <g id="Social">
    <path class="cls-1" d="m15.23.18c-2.77.13-4.66.57-6.31,1.22-1.71.67-3.16,1.56-4.6,3.01-1.44,1.45-2.33,2.9-2.99,4.61-.64,1.66-1.07,3.55-1.2,6.31C.02,18.1-.01,18.99,0,26.05c.01,7.06.04,7.95.18,10.72.13,2.77.57,4.65,1.22,6.31.67,1.71,1.56,3.16,3.01,4.6,1.45,1.44,2.9,2.33,4.61,2.99,1.65.64,3.54,1.07,6.31,1.2,2.77.12,3.66.15,10.72.14,7.06-.01,7.95-.04,10.72-.18,2.77-.13,4.65-.58,6.31-1.22,1.71-.67,3.16-1.56,4.6-3.01,1.44-1.45,2.33-2.9,2.99-4.61.64-1.65,1.08-3.54,1.2-6.31.12-2.77.15-3.66.14-10.72-.01-7.06-.05-7.94-.18-10.72-.13-2.77-.57-4.66-1.22-6.31-.67-1.71-1.56-3.16-3.01-4.6-1.45-1.44-2.9-2.33-4.61-2.99-1.65-.64-3.54-1.08-6.31-1.2C33.9.02,33.01-.01,25.95,0c-7.06.01-7.94.04-10.72.18m.3,47c-2.53-.11-3.91-.53-4.83-.88-1.21-.47-2.08-1.03-2.99-1.94-.91-.91-1.48-1.77-1.95-2.99-.36-.92-.79-2.29-.9-4.83-.13-2.74-.16-3.56-.17-10.5-.01-6.94.01-7.76.13-10.51.11-2.53.53-3.91.88-4.83.47-1.22,1.03-2.08,1.94-2.99.91-.91,1.77-1.48,2.99-1.95.92-.36,2.29-.78,4.83-.9,2.74-.13,3.56-.16,10.5-.17,6.94-.01,7.76.01,10.51.13,2.53.11,3.91.53,4.83.88,1.22.47,2.08,1.03,2.99,1.94.91.91,1.48,1.77,1.95,2.99.36.91.78,2.29.9,4.82.13,2.74.16,3.56.17,10.5.01,6.94-.01,7.76-.13,10.51-.11,2.53-.53,3.91-.88,4.83-.47,1.21-1.03,2.08-1.94,2.99-.91.91-1.77,1.48-2.99,1.95-.91.36-2.29.78-4.82.9-2.74.13-3.56.16-10.51.17-6.94.01-7.76-.01-10.5-.13M36.73,12.1c0,1.72,1.4,3.12,3.13,3.11,1.72,0,3.12-1.4,3.11-3.12,0-1.72-1.4-3.12-3.13-3.11-1.72,0-3.12,1.4-3.11,3.13m-24.08,13.92c.01,7.37,6,13.34,13.37,13.32,7.37-.01,13.34-6,13.33-13.37-.01-7.37-6-13.34-13.38-13.32-7.37.01-13.34,6-13.32,13.38m4.68,0c0-4.79,3.86-8.67,8.65-8.68,4.79,0,8.67,3.86,8.68,8.65,0,4.79-3.86,8.67-8.65,8.68-4.78,0-8.67-3.86-8.68-8.65"/>
  </g>
</svg>